<svg width="21" height="21" viewBox="0 0 21 21" fill="none" xmlns="http://www.w3.org/2000/svg">
<path d="M2.29791 6.06138C2.29791 7.52804 2.76458 8.66138 3.76458 9.26138C4.56458 9.79471 5.49791 9.86138 5.96458 9.86138C6.09791 9.86138 6.16458 9.86138 6.23125 9.86138C6.23125 9.86138 6.09791 10.8614 6.83125 11.8614H6.76458C5.49791 11.8614 1.29791 12.128 1.29791 15.5947C1.29791 19.128 5.16458 19.2614 5.96458 19.2614C6.03125 19.2614 6.03125 19.2614 6.03125 19.2614C6.03125 19.2614 6.09791 19.2614 6.16458 19.2614C6.63125 19.2614 7.96458 19.1947 9.16458 18.5947C10.6979 17.8614 11.4979 16.528 11.4979 14.728C11.4979 12.9947 10.2979 11.928 9.43125 11.128C8.89791 10.6614 8.43125 10.2614 8.43125 9.86138C8.43125 9.46138 8.76458 9.12804 9.16458 8.79471C9.83125 8.19471 10.4979 7.32804 10.4979 5.66138C10.4979 4.19471 10.2979 3.19471 9.16458 2.59471C9.36458 2.52804 9.83125 2.46138 10.0312 2.46138C10.6312 2.39471 11.5646 2.26138 11.5646 1.79471V1.66138H6.96458C6.89791 1.66138 2.29791 1.86138 2.29791 6.06138ZM9.76458 15.0614C9.83125 16.4614 8.63125 17.528 6.83125 17.6614C4.96458 17.7947 3.49791 16.9947 3.43125 15.5947C3.36458 14.928 3.69791 14.2614 4.29791 13.728C4.89791 13.1947 5.69791 12.8614 6.56458 12.7947C6.69791 12.7947 6.76458 12.7947 6.89791 12.7947C8.49791 12.728 9.63125 13.728 9.76458 15.0614ZM8.56458 5.06138C9.03125 6.66138 8.36458 8.32804 7.23125 8.59471C7.09791 8.66138 6.96458 8.66138 6.83125 8.66138C5.83125 8.66138 4.83125 7.66138 4.49791 6.26138C4.29791 5.52804 4.29791 4.86138 4.56458 4.19471C4.76458 3.52804 5.23125 3.12804 5.69791 2.99471C5.83125 2.92804 5.96458 2.92804 6.09791 2.92804C7.29791 2.92804 8.03125 3.39471 8.56458 5.06138ZM16.2979 8.46138V5.46138H14.2979V8.46138H11.2979V10.4614H14.2979V13.4614H16.2979V10.4614H19.2979V8.46138H16.2979Z" fill="black"/>
</svg>
