<svg width="21" height="21" viewBox="0 0 21 21" fill="none" xmlns="http://www.w3.org/2000/svg">
<path d="M14.6312 7.92816C14.6312 7.92816 13.1646 12.5948 13.0312 12.9282C12.9646 12.5282 11.8979 4.19482 11.8979 4.19482C9.36456 4.19482 8.03123 5.99482 7.2979 7.86149C7.2979 7.86149 5.4979 12.5282 5.36457 12.9282C5.36457 12.5948 5.0979 7.92816 5.0979 7.92816C4.96457 5.59482 2.83123 4.19482 1.0979 4.19482L3.16457 16.7948C5.83123 16.7948 7.23123 14.9948 7.96457 13.1282C7.96457 13.1282 9.56457 8.99482 9.63123 8.86149C9.63123 9.06149 10.7646 16.8615 10.7646 16.8615C13.4312 16.8615 14.8312 15.1948 15.6312 13.3282L19.3646 4.19482C16.7646 4.19482 15.3646 5.99482 14.6312 7.92816Z" fill="black"/>
</svg>
